<svg xmlns="http://www.w3.org/2000/svg" width="24" height="24" viewBox="0 0 24 24" fill="none" stroke="currentColor" stroke-width="1.5" stroke-linecap="round" stroke-linejoin="round">
  <path stroke="none" d="M0 0h24v24H0z" fill="none"/>
  <g transform="translate(0, 0.888)">
    <path d="M12.000 19.464C16.904 19.464 20.880 15.515 20.880 10.644C20.880 5.773 16.904 1.824 12.000 1.824C7.096 1.824 3.120 5.773 3.120 10.644C3.120 15.515 7.096 19.464 12.000 19.464Z" />
    <path d="M9.706 19.400C10.406 18.390 10.356 17.631 9.395 16.686C8.434 15.741 7.875 14.359 7.875 14.359C7.875 14.359 7.666 13.556 7.190 13.630C6.714 13.704 6.365 14.904 7.362 15.638C8.358 16.371 7.163 16.870 6.780 16.181C6.396 15.492 5.349 13.720 4.806 13.381C4.263 13.042 3.881 13.232 4.009 13.930C4.137 14.629 6.407 16.322 6.186 16.688C5.965 17.054 5.187 16.258 5.187 16.258C5.187 16.258 2.751 14.076 2.220 14.645C1.690 15.213 2.623 15.689 3.952 16.481C5.281 17.273 5.384 17.482 5.196 17.781C5.007 18.081 2.073 15.647 1.797 16.679C1.522 17.711 4.792 18.010 4.590 18.722C4.388 19.435 2.287 17.374 1.857 18.177C1.427 18.980 4.822 19.924 4.850 19.931C5.947 20.211 8.732 20.804 9.706 19.400Z" />
    <path d="M4.368 13.244C4.497 13.244 4.654 13.298 4.827 13.408C5.366 13.747 6.406 15.523 6.786 16.214C6.914 16.445 7.132 16.543 7.328 16.543C7.718 16.543 8.022 16.159 7.364 15.670C6.374 14.934 6.721 13.731 7.194 13.657C7.214 13.654 7.235 13.653 7.255 13.653C7.684 13.653 7.873 14.388 7.873 14.388C7.873 14.388 8.429 15.774 9.382 16.721C10.336 17.668 10.385 18.428 9.690 19.441C9.216 20.132 8.309 20.222 7.379 20.222C6.414 20.222 5.424 20.053 4.869 19.910C4.842 19.903 1.474 19.020 1.901 18.215C1.972 18.080 2.090 18.026 2.239 18.026C2.840 18.026 3.934 18.915 4.404 18.915C4.509 18.915 4.587 18.834 4.617 18.725C4.827 17.977 1.568 17.747 1.841 16.713C1.890 16.530 2.021 16.456 2.204 16.456C2.999 16.456 4.781 17.844 5.154 17.844C5.183 17.844 5.203 17.836 5.215 17.818C5.402 17.518 5.316 17.274 3.996 16.480C2.677 15.687 1.735 15.244 2.261 14.674C2.322 14.609 2.408 14.580 2.512 14.580C3.313 14.580 5.205 16.291 5.205 16.291C5.205 16.291 5.716 16.819 6.025 16.819C6.096 16.819 6.156 16.791 6.197 16.722C6.416 16.355 4.163 14.659 4.036 13.959C3.950 13.484 4.097 13.244 4.368 13.244Z" />
    <path d="M19.589 13.244C19.460 13.244 19.303 13.298 19.129 13.408C18.591 13.747 17.551 15.523 17.170 16.214C17.043 16.445 16.825 16.543 16.629 16.543C16.239 16.543 15.935 16.159 16.593 15.670C17.582 14.934 17.235 13.731 16.763 13.657C16.742 13.654 16.722 13.653 16.702 13.653C16.273 13.653 16.083 14.388 16.083 14.388C16.083 14.388 15.528 15.774 14.574 16.721C13.621 17.668 13.571 18.428 14.267 19.441C14.741 20.132 15.648 20.222 16.578 20.222C17.543 20.222 18.533 20.053 19.087 19.910C19.115 19.903 22.483 19.020 22.056 18.215C21.984 18.080 21.866 18.026 21.717 18.026C21.116 18.026 20.023 18.915 19.553 18.915C19.448 18.915 19.370 18.834 19.339 18.725C19.130 17.977 22.389 17.747 22.115 16.713C22.067 16.530 21.936 16.456 21.752 16.456C20.958 16.456 19.176 17.844 18.802 17.844C18.774 17.844 18.753 17.836 18.742 17.818C18.555 17.518 18.641 17.274 19.960 16.480C21.280 15.687 22.222 15.244 21.695 14.674C21.635 14.609 21.549 14.580 21.444 14.580C20.644 14.580 18.751 16.291 18.751 16.291C18.751 16.291 18.241 16.819 17.932 16.819C17.861 16.819 17.800 16.791 17.759 16.722C17.540 16.355 19.793 14.659 19.920 13.959C20.007 13.484 19.860 13.244 19.589 13.244Z" />    <path d="M15.325 10.987C15.325 9.851 13.852 11.583 12.031 11.590C10.209 11.583 8.736 9.851 8.736 10.987C8.736 11.740 9.096 12.965 10.064 13.708C10.257 13.046 11.315 12.515 11.466 12.591C11.681 12.700 11.669 13.001 12.031 13.266C12.392 13.001 12.380 12.700 12.595 12.591C12.746 12.515 13.805 13.046 13.997 13.708C14.965 12.965 15.325 11.740 15.325 10.987L15.325 10.987Z" />
    <path d="M12.595 12.591C12.380 12.700 12.392 13.000 12.031 13.265C11.669 13.000 11.682 12.700 11.466 12.591C11.315 12.515 10.257 13.046 10.064 13.708C10.554 14.084 11.198 14.337 12.030 14.343C12.030 14.343 12.030 14.343 12.031 14.343C12.031 14.343 12.031 14.343 12.031 14.343C12.863 14.337 13.508 14.084 13.997 13.708C13.805 13.046 12.747 12.515 12.595 12.591H12.595Z" />
    <path d="M17.904 9.408C18.355 9.408 18.720 9.043 18.720 8.592C18.720 8.141 18.355 7.776 17.904 7.776C17.453 7.776 17.088 8.141 17.088 8.592C17.088 9.043 17.453 9.408 17.904 9.408Z" />
    <path d="M6.144 9.408C6.595 9.408 6.960 9.043 6.960 8.592C6.960 8.141 6.595 7.776 6.144 7.776C5.693 7.776 5.328 8.141 5.328 8.592C5.328 9.043 5.693 9.408 6.144 9.408Z" />
    <path d="M15.027 8.237C15.350 8.350 15.479 9.013 15.805 8.840C16.424 8.512 16.659 7.746 16.330 7.129C16.001 6.512 15.233 6.278 14.614 6.606C13.996 6.934 13.761 7.700 14.090 8.317C14.245 8.608 14.738 8.135 15.027 8.237Z" />
    <path d="M9.051 8.237C8.727 8.350 8.599 9.013 8.272 8.840C7.653 8.512 7.419 7.746 7.748 7.129C8.076 6.512 8.844 6.278 9.463 6.606C10.082 6.934 10.316 7.700 9.988 8.317C9.832 8.608 9.340 8.135 9.051 8.237Z" />
  </g>
</svg>